# xmcd CD database file generated by OrangeCD 4.3
#
# Track frame offsets:
#	150
#	11250
#	21675
#	31925
#	43575
#	53100
#	65850
#	78825
#	90825
#	99825
#	113025
#	125025
#	141225
#	153300
#	166350
#	180075
#
# Disc length: 2544 seconds
#
# Revision: 0
# Processed by: cddbd v1.4PL0 Copyright (c) Steve Scherf et al.
# Submitted via: OrangeCD 4.3
#
DISCID=c109ee10
DTITLE=Johnny Paycheck - Heartbreak Tennessee
DYEAR=1994
DGENRE=Country
TTITLE0=Heartbreak Tennessee
TTITLE1=A-11
TTITLE2=The Lonely Sounds Of Town
TTITLE3=Don't Tell My Wife
TTITLE4=Where In The World?
TTITLE5=The Real Mr. Heartache
TTITLE6=What's Gonna Happen To The Little Folk?
TTITLE7=Poor Boy
TTITLE8=Mr. Lovemaker
TTITLE9=I'm The Only Hell  ( Mama Ever Raised )
TTITLE10=Close All The Honky Tonks
TTITLE11=Danny Boy
TTITLE12=All The Time
TTITLE13=Song And Dance Man
TTITLE14=Almost Persuaded
TTITLE15=Apartment No. 9
EXTD=
EXTT0=
EXTT1=
EXTT2=
EXTT3=
EXTT4=
EXTT5=
EXTT6=
EXTT7=
EXTT8=
EXTT9=
EXTT10=
EXTT11=
EXTT12=
EXTT13=
EXTT14=
EXTT15=
PLAYORDER=
